<svg xmlns="http://www.w3.org/2000/svg" width="81" height="55" viewBox="0 0 81 55">
    <path fill="#00A6F9" fill-rule="evenodd" d="M71.21 12.197a1.797 1.797 0 0 0-2.374.969l-16.002-1.727L79.01 2.714l-7.8 9.483zM41 53.155V26.768a2.965 2.965 0 0 0 2.47-2.92c0-.153-.023-.3-.045-.447l25.596-8.532c.232.336.578.582.979.699v27.92l-29 9.667zm-28.792-9.844l26.139-17.426a2.95 2.95 0 0 0 1.653.883v26.387l-27.71-9.236c.003-.024.009-.046.009-.071 0-.188-.037-.367-.091-.537zm1.448-36.709v.001l9.923 3.308.004.001 6.622 2.207 8.057 9.796a2.903 2.903 0 0 0-.368.537l-27.1-9.033L1.99 2.714l11.667 3.888zM30.5 1.027l8.207 2.749c-.001.025-.007.047-.007.072 0 .025.006.047.007.071l-14.97 4.99-8.35-2.783 15.113-5.099zm19.998 0l15.079 5.088-8.544 2.719L42.29 3.919c.002-.024.008-.046.008-.071 0-.024-.007-.047-.008-.072l8.208-2.749zm-.157 10.189c-.014.004-.022.018-.035.024a.472.472 0 0 0-.16.11c-.01.01-.024.012-.033.023l-8.148 9.907a2.953 2.953 0 0 0-.966-.352V5.568c.4-.117.747-.363.98-.699l13.7 4.567-5.338 1.78zm-7.235 11.236a3.014 3.014 0 0 0-.37-.537l7.978-9.698 17.45 1.882-25.058 8.353zM40 5.568v15.36c-.348.06-.671.183-.966.352l-8.148-9.907a.502.502 0 0 0-.228-.157l-5.338-1.78 13.7-4.567c.233.336.579.582.98.699zm-28.347 36.91a1.784 1.784 0 0 0-.653-.349V14.543l26.575 8.858c-.022.147-.046.294-.046.447 0 .43.096.837.26 1.206L11.654 42.478zM80.912 1.407a.505.505 0 0 0-.57-.191L67.185 5.601 50.66.026a.512.512 0 0 0-.32-.001l-8.362 2.801a1.795 1.795 0 0 0-2.956 0L30.659.025a.512.512 0 0 0-.32.001L13.816 5.601.658 1.216a.505.505 0 0 0-.57.191.501.501 0 0 0 .026.601L10 14.027v28.102a1.793 1.793 0 0 0 .5 3.518c.614 0 1.154-.308 1.48-.778l28.362 9.454a.506.506 0 0 0 .316 0l30-10a.501.501 0 0 0 .342-.475v-28.28a1.794 1.794 0 0 0 1.299-1.72c0-.377-.117-.726-.317-1.016l8.904-10.824a.501.501 0 0 0 .026-.601z"/>
</svg>
