<svg xmlns="http://www.w3.org/2000/svg" width="211" height="178" viewBox="0 0 211 178">
    <path fill="#FF0096" fill-rule="evenodd" d="M186.306 128.994a3.827 3.827 0 0 0-2.523-.962c-1.055 0-2.01.426-2.708 1.115l-20.166-11.958a7.323 7.323 0 0 0 .562-2.82 7.308 7.308 0 0 0-1.272-4.128l42.173-38.48c.46.298.986.49 1.55.57l5.015 41.298-22.63 15.365zm-34.388 31.445l29.667-25.328c.358.25.766.429 1.2.546v13l-30.867 11.782zm-65.9-28.079l6.722-1.083a3.865 3.865 0 0 0 3.527 2.302c1.18 0 2.224-.542 2.934-1.378l25.068 11.943 10.63 29.675-48.88-41.459zm-41.36-23.784c.326.09.664.155 1.02.155.465 0 .905-.096 1.318-.248l15.307 21.964-21.576-15.139 3.93-6.732zM82.946 2.374l6.729 37.16a7.302 7.302 0 0 0-4.986 6.512L3.103 52.492l17.524-23.777c.44.175.917.278 1.418.278a3.878 3.878 0 0 0 3.869-3.887c0-.143-.027-.28-.041-.42L82.947 2.374zm75.908 106.383a7.232 7.232 0 0 0-4.666-1.7c-.768 0-1.505.12-2.2.34l-24.417-51.495c.4-.343.728-.762.963-1.242l72.085 14.108c.037.54.183 1.045.417 1.502l-42.182 38.487zM65.659 78.03l-18.436 23.255a3.822 3.822 0 0 0-1.546-.327 3.868 3.868 0 0 0-3.569 2.387l-22.886-3.122L65.66 78.03zm56.304-27.366a3.894 3.894 0 0 0-.357.596L99.21 46.877c.007-.132.02-.264.02-.399 0-4.038-3.26-7.313-7.28-7.313-.104 0-.205.012-.308.016L85.402 4.73l36.561 45.934zm5.692-.576a3.823 3.823 0 0 0-2.585-1.014 3.84 3.84 0 0 0-1.552.33l-37.2-46.738 83.156 20.27-41.819 27.152zm20.635 60.006L97.57 83.09c.063-.28.104-.57.104-.87a3.884 3.884 0 0 0-3.067-3.8l-1.285-24.763a7.296 7.296 0 0 0 5.512-4.81l22.394 4.383c.141 2.018 1.797 3.617 3.843 3.617.24 0 .474-.03.703-.072l24.414 51.488a7.32 7.32 0 0 0-1.897 1.83zM99.611 127.77a3.86 3.86 0 0 0-2.542-1.879L94.995 85.9a3.84 3.84 0 0 0 1.634-1.04l50.726 27.005a7.325 7.325 0 0 0-.447 2.504c0 .296.023.587.058.874L99.61 127.77zm101.884-61.739c-.193.235-.362.49-.497.767l-72.085-14.108a3.868 3.868 0 0 0-.177-.917l42.97-27.9 29.79 42.158zM2.325 54.564l82.515-6.519a7.296 7.296 0 0 0 1.84 3.47l-18.187 22.94-52.117 24.909-14.05-44.8zm64.49 78.861L48.63 107.33a3.86 3.86 0 0 0 .917-2.486c0-.865-.29-1.656-.766-2.302L88.24 52.763c.919.548 1.965.9 3.085.996l1.286 24.783a3.872 3.872 0 0 0-2.677 3.679A3.882 3.882 0 0 0 93 86.02l2.074 39.993a3.863 3.863 0 0 0-2.638 3.28l-25.622 4.131zm33.252-3.031c.04-.224.066-.453.067-.688l47.335-12.522a7.3 7.3 0 0 0 .905 1.573l-23.51 23.45-24.797-11.813zm80.23 3.183l-33.415 28.53-20.366-18.722 23.265-23.206a7.22 7.22 0 0 0 4.408 1.503 7.254 7.254 0 0 0 5.7-2.77l20.182 11.969a3.83 3.83 0 0 0-.156 1.037c0 .596.143 1.154.382 1.66zM205.905 72.1a3.883 3.883 0 0 0 2.428-3.601 3.879 3.879 0 0 0-3.87-3.887c-.474 0-.923.098-1.343.255L172.78 21.93a.977.977 0 0 0-.235-.231c-.009-.006-.016-.015-.025-.021a1.007 1.007 0 0 0-.317-.142L83.947.026h-.002c-.015-.004-.03-.001-.045-.004a.947.947 0 0 0-.265-.02c-.038.004-.074.018-.111.025-.06.01-.118.017-.174.038L25.155 22.814a3.848 3.848 0 0 0-3.11-1.594 3.877 3.877 0 0 0-3.87 3.886c0 .915.327 1.744.854 2.408L.194 53.067c-.02.027-.022.061-.038.09a.984.984 0 0 0-.117.278c-.013.055-.016.107-.02.163-.004.048-.022.094-.018.145.004.048.027.088.038.134.005.03-.003.059.005.088l14.77 47.1c.01.03.028.054.038.08.007.017.005.034.013.05.011.023.028.04.04.06a.958.958 0 0 0 .396.388.957.957 0 0 0 .264.096c.023.005.044.016.068.019l26.223 3.577a3.89 3.89 0 0 0 1.07 2.24l-4.387 7.517c-.264.45-.138 1.03.29 1.33l26.956 18.914c.023.016.05.02.073.032.045.027.09.043.137.062a.94.94 0 0 0 .275.066c.03.003.057.02.087.02.034 0 .065-.01.098-.013.02-.002.039.005.06.002l16.902-2.726 53.036 44.984a.994.994 0 0 0 1.214.057c.372-.258.523-.736.37-1.163l-10.659-29.76 18.805 17.285c.054.05.12.076.18.112.037.022.07.051.11.068a1 1 0 0 0 .384.084c.118 0 .236-.023.347-.065.003 0 .006 0 .008-.002l36.926-14.092c.387-.149.644-.522.644-.938v-13.692a3.875 3.875 0 0 0 2.871-3.74c0-.443-.09-.864-.227-1.262l23.135-15.708c.31-.21.477-.579.431-.953L205.905 72.1z"/>
</svg>
