<svg xmlns="http://www.w3.org/2000/svg" width="61" height="59" viewBox="0 0 61 59">
    <path fill="#29ABE2" fill-rule="evenodd" d="M54.827 45.89c-.02 0-.037-.006-.057-.006-.416 0-.794.147-1.097.381l-20.52-14.817c.196-.395.317-.832.317-1.302 0-1.133-.65-2.107-1.594-2.601L39.713 3.57c.02.001.038.006.057.006.416 0 .794-.146 1.1-.38l13.475 9.73 5.63 17.22-5.148 15.744zM39.608 58.006H21.392L6.655 47.366l-5.629-17.22 5.629-17.22L21.392 2.286h16.66c.117.404.367.752.71.983l-7.837 23.968c-.14-.019-.28-.042-.425-.042a2.96 2.96 0 0 0-2.97 2.952 2.96 2.96 0 0 0 2.97 2.952c.807 0 1.536-.322 2.072-.842L53.084 47.07c-.069.189-.112.39-.112.604 0 .212.043.413.112.603l-13.476 9.73zm21.367-28.013l-5.729-17.526a.498.498 0 0 0-.182-.249L41.457 2.391c.068-.189.112-.39.112-.603C41.57.801 40.764 0 39.77 0c-.818 0-1.5.548-1.719 1.291H21.23a.499.499 0 0 0-.294.095l-15 10.832a.496.496 0 0 0-.181.249L.024 29.993a.5.5 0 0 0 0 .306l5.73 17.527c.032.1.096.187.181.248l15 10.832a.505.505 0 0 0 .294.094H39.77a.5.5 0 0 0 .294-.094l13.61-9.827c.303.235.681.382 1.096.382.994 0 1.8-.802 1.8-1.788 0-.616-.314-1.158-.79-1.48l5.195-15.894a.486.486 0 0 0 0-.306z"/>
</svg>
