<svg xmlns="http://www.w3.org/2000/svg" width="62" height="54" viewBox="0 0 62 54">
    <path fill="#29ABE2" fill-rule="evenodd" d="M45.018 53H18.792l3.152-11.612c.095.01.186.03.283.03 1.317 0 2.421-.872 2.802-2.07L60.003 44.3 45.018 53zM7.464 22.307l12.475 14.278a2.953 2.953 0 0 0-.668 1.86c0 .096.019.186.028.278l-15.985 4.35a1.788 1.788 0 0 0-1.026-.787V25.314l5.176-3.006zm14.373-21.23l14.017 8.136c.148.087.331.09.484.008l4.945-2.67 10.041 5.83v5.303a1.793 1.793 0 0 0-1.291 1.721c0 .177.033.344.08.506l-25.708 16.54a2.93 2.93 0 0 0-2.178-.978c-.567 0-1.093.168-1.544.448L8.067 21.482V9.07l13.77-7.994zM17.83 52.741L3.524 44.435c.03-.128.05-.258.053-.395l15.975-4.349c.293.636.8 1.146 1.43 1.441l-3.151 11.61zm43.174-9.31l-35.83-5.074a2.985 2.985 0 0 0-.225-1.07l25.699-16.533a1.77 1.77 0 0 0 1.173.451c.482 0 .917-.194 1.238-.504l7.945 4.612v18.118zM62 25.025a.5.5 0 0 0-.249-.434l-8.195-4.758c.034-.137.056-.279.056-.427 0-.82-.547-1.503-1.292-1.72v-5.593a.497.497 0 0 0-.25-.432L41.54 5.547a.488.488 0 0 0-.484-.008l-4.944 2.67L22.085.067a.492.492 0 0 0-.497 0L7.32 8.348a.5.5 0 0 0-.25.434V21.38l-5.53 3.211a.5.5 0 0 0-.248.434v17.262A1.793 1.793 0 0 0 0 44.008c0 .995.801 1.8 1.79 1.8.481 0 .917-.193 1.238-.504l14.865 8.629c.012.006.027.004.04.01.026.013.048.032.077.039a.493.493 0 0 0 .13.018h27.012a.494.494 0 0 0 .248-.067l16.351-9.493c.01-.005.013-.015.021-.02a.463.463 0 0 0 .15-.152c.004-.005.01-.008.012-.014a.505.505 0 0 0 .061-.177c.002-.015-.003-.027-.002-.042 0-.01.007-.018.007-.027V25.025z"/>
</svg>
