<svg xmlns="http://www.w3.org/2000/svg" width="56" height="63" viewBox="0 0 56 63">
    <path fill="#1BE1F4" fill-rule="evenodd" d="M53.26 45.934l-11.808-6.818L53.26 18.664v27.27zm-24.115 14.5l11.807-20.452 11.808 6.817-23.615 13.635zm-.865-25.715a2.941 2.941 0 0 0 1.773-1.03l10.034 5.793L28.28 59.934V34.719zm0-31.2a1.8 1.8 0 0 0 .744-.425l22.994 13.278a1.817 1.817 0 0 0-.057.427c0 .484.194.92.504 1.244L40.587 38.617l-10.03-5.792c.119-.321.193-.663.193-1.026a2.966 2.966 0 0 0-2.47-2.92V3.519zm-1 25.36a2.965 2.965 0 0 0-2.47 2.92c0 .363.074.705.192 1.027L3.164 45.434 27.28 3.665v25.214zm0 32.054L3.541 47.227c.033-.138.057-.279.057-.428 0-.148-.024-.291-.058-.428L25.506 33.69a2.95 2.95 0 0 0 1.774 1.029v26.214zM2.299 44.934V17.088L26.414 3.164 2.299 44.934zM53.76 15c-.483 0-.92.194-1.244.504L29.522 2.228c.033-.138.056-.28.056-.429a1.798 1.798 0 1 0-3.597 0c0 .149.023.291.056.429L1.549 16.367a.499.499 0 0 0-.25.432V45.08a1.793 1.793 0 0 0 .5 3.518c.483 0 .92-.193 1.244-.504L27.53 62.232c.006.004.015.003.022.006a.49.49 0 0 0 .228.061.497.497 0 0 0 .224-.058c.008-.004.016-.004.024-.008l.002-.001 25.975-14.997.002-.001.003-.002a.48.48 0 0 0 .244-.409c0-.008.006-.015.006-.024v-28.28a1.793 1.793 0 0 0-.5-3.519z"/>
</svg>
