<svg xmlns="http://www.w3.org/2000/svg" width="62" height="62" viewBox="0 0 62 62">
    <path fill="#29ABE2" fill-rule="evenodd" d="M31.159 61.005l8.936-17.874c.11.013.22.033.334.033.598 0 1.151-.18 1.616-.484l17.023 18.325h-27.91zm-29.697 0l7.682-10.803c.628.218 1.3.069 1.771-.35L28.63 61.005H1.462zm6.556-12.978a1.776 1.776 0 0 0 .315 1.597L.995 59.944V43.607l7.023 4.42zM26.44 25.88l11.65 12.543a2.931 2.931 0 0 0-.616 1.787c0 1.162.676 2.157 1.651 2.64l-8.97 17.94-18.711-11.78a1.778 1.778 0 0 0-.315-1.597L26.44 25.88zm33.273 34.358l-16.943-18.24a2.927 2.927 0 0 0 .616-1.788c0-.787-.313-1.498-.814-2.029L59.71 3.898v56.339zm1.182-60.1A1.785 1.785 0 1 0 58.998 3.1l-17.24 34.48a2.928 2.928 0 0 0-1.33-.328c-.596 0-1.15.18-1.615.485L26.752 24.755a.481.481 0 0 0-.397-.158.501.501 0 0 0-.373.208l-15.665 22.03a1.782 1.782 0 0 0-1.771.35l-7.783-4.9a.498.498 0 1 0-.763.421v18.796c0 .077.02.149.053.214.002.005 0 .01.003.014.005.012.018.017.025.028a.497.497 0 0 0 .132.141c.018.013.033.025.052.036A.49.49 0 0 0 .498 62h59.711c.09 0 .17-.03.244-.073.018-.01.033-.022.05-.033a.492.492 0 0 0 .156-.185c.001-.003.005-.004.006-.008l.001-.003a.494.494 0 0 0 .041-.196v-58c.504-.147.94-.505 1.156-1.027a1.79 1.79 0 0 0-.969-2.338z"/>
</svg>
