<svg xmlns="http://www.w3.org/2000/svg" width="63" height="52" viewBox="0 0 63 52">
    <path fill="#B000F9" fill-rule="evenodd" d="M31.898 35.79c.359-.106.668-.32.894-.61l13.93 5.81-14.824 9.585V35.79zM3.575 20.927c0-.009-.003-.017-.003-.026l12.165-3.78 7.36 8.31-8.133 14.515L2.942 22.303c.385-.334.633-.822.633-1.376zM7.231 7.515l7.773 8.778-11.722 3.642a1.836 1.836 0 0 0-.496-.514L7.231 7.515zM18.902 1.11l9.98 8.98a3.01 3.01 0 0 0-.494 1.657c0 .128.021.252.037.377l-12.374 3.845-8.19-9.25 11.041-5.61zm40.669 17.118L45.829 2.088l9.522 4.839 4.22 11.3zM29.889 35.011c.23.374.588.652 1.015.778v14.786l-14.837-9.593 13.822-5.971zm-.002-1.913c-.166.273-.267.59-.272.933l-13.45 5.812 7.633-13.62 6.089 6.875zm.45-18.543c.18.067.37.115.567.144v17.619a1.743 1.743 0 0 0-.278.106l-6.311-7.126 6.022-10.743zm-.863-.503l-5.86 10.456-6.83-7.712 11.93-3.707c.185.374.444.7.76.963zM43.776 1.221l15.939 18.72c-.182.285-.29.622-.29.986 0 .074.014.145.022.215L32.62 32.732a1.765 1.765 0 0 0-.723-.414v-17.63c1.362-.266 2.393-1.481 2.393-2.942 0-.584-.171-1.122-.453-1.582l9.938-8.943zm3.84 39.05L33.17 34.246c.007-.064.02-.126.02-.193 0-.153-.025-.3-.06-.443l26.705-11.539c.033.042.064.085.1.122L47.615 40.271zm13.596-21.16c-.082 0-.16.014-.24.025l-4.76-12.753a.51.51 0 0 0-.242-.272L44.045.053h-.001a.488.488 0 0 0-.316-.036.47.47 0 0 0-.23.106l-.003.003-.001.001-10.32 9.287a2.896 2.896 0 0 0-1.834-.668c-.668 0-1.277.233-1.772.613L19.308.127a.491.491 0 0 0-.55-.074L6.832 6.11c-.021.01-.036.03-.055.043-.018.012-.039.018-.055.034-.007.006-.01.014-.015.02-.026.027-.045.057-.065.089-.014.023-.032.045-.043.07-.002.006-.007.01-.009.016L1.838 19.116c-.018 0-.033-.005-.05-.005C.8 19.11 0 19.925 0 20.927c0 1.003.8 1.817 1.788 1.817.08 0 .155-.014.231-.024l12.578 18.46c.007.011.02.017.027.028.006.006.004.015.01.021.015.017.035.024.051.038.018.016.033.038.053.052l16.396 10.602c.005.003.01.002.016.004.005.003.008.01.013.012a.49.49 0 0 0 .477 0c.005-.003.008-.009.013-.012.005-.002.01 0 .015-.004L48.065 41.32c.002 0 .002-.003.003-.004.004-.002.006-.006.009-.009a.47.47 0 0 0 .129-.126l12.597-18.489c.132.033.267.053.41.053.987 0 1.787-.814 1.787-1.817 0-1.002-.8-1.816-1.788-1.816z"/>
</svg>
