<svg xmlns="http://www.w3.org/2000/svg" width="57" height="57" viewBox="0 0 57 57">
    <path fill="#60E3EA" fill-rule="evenodd" d="M31.25 52.908a2.915 2.915 0 0 0-.34-.621L48.39 34.61l7.34 13.026-24.48 5.27zm-29.425-5.15l20.654-12.643c.3.277.692.45 1.125.472L27.33 51.27a2.993 2.993 0 0 0-1.588 1.638l-23.917-5.15zm6.96-13.469h13.124L1.875 46.551l6.91-12.262zm19.518-6.575l.012.005a.512.512 0 0 0 .362 0l6.119-2.386-1.89 7.951h-7.495a1.792 1.792 0 0 0-1.634-1.296l-1.58-6.655 6.106 2.38zm-9.616-24.28l14.023 9.071a1.807 1.807 0 0 0-.082.513c0 .568.266 1.068.674 1.4l-5.08 12.186-9.535-3.718V3.433zm9.809-2.42l9.61 1.875-3.476 8.341c-.067-.007-.133-.02-.202-.02-.452 0-.86.173-1.175.45L19.506 2.766l8.99-1.753zm.915 25.34l4.814-11.548c.067.007.133.019.203.019a1.803 1.803 0 0 0 1.125-3.207l2.752-6.605v17.873l-8.894 3.468zm-4 7.935h7.257l-3.981 16.76c-.065-.005-.125-.019-.191-.019-.064 0-.126.014-.19.02l-3.73-15.7c.402-.229.703-.605.835-1.06zm21.886 0L30.201 51.577a2.972 2.972 0 0 0-.539-.307l4.035-16.98h13.6zm9.638 13.448l-8-14.197c-.009-.014-.025-.02-.035-.035-.016-.025-.027-.052-.049-.075-.02-.02-.046-.03-.069-.045-.02-.014-.039-.03-.06-.04a.497.497 0 0 0-.218-.059l-.006-.002H33.936l1.994-8.394 3.055-1.191a.503.503 0 0 0 .32-.469V2.512v-.007a.503.503 0 0 0-.036-.174c-.006-.018-.019-.031-.028-.048a.513.513 0 0 0-.068-.106c-.015-.016-.032-.028-.049-.042a.436.436 0 0 0-.1-.068c-.01-.006-.016-.015-.026-.018-.013-.006-.026-.004-.039-.008-.02-.007-.037-.019-.059-.023L28.592.008a.56.56 0 0 0-.192 0l-10.308 2.01-.006.002c-.017.004-.031.014-.047.02a.465.465 0 0 0-.121.052c-.018.01-.031.028-.048.042a.49.49 0 0 0-.084.086c-.006.007-.015.012-.02.02-.008.014-.01.03-.016.045a.457.457 0 0 0-.055.183c-.001.015-.008.029-.008.044V23.23c0 .208.127.393.32.469l3.056 1.192 1.742 7.331c-.402.23-.702.607-.834 1.062H8.493a.497.497 0 0 0-.435.256l-8 14.197c-.01.016-.009.035-.016.051a.476.476 0 0 0-.017.348c.006.018.003.037.011.055.004.008.013.014.018.023.005.01.005.023.011.032.013.02.035.03.05.048.032.039.065.074.106.102.03.02.061.032.094.047.026.009.046.028.073.034l25.15 5.415c-.001.042-.012.081-.012.123A2.977 2.977 0 0 0 28.496 57a2.978 2.978 0 0 0 2.971-2.985c0-.042-.01-.081-.013-.123l25.15-5.415a.503.503 0 0 0 .331-.74z"/>
</svg>
