<svg xmlns="http://www.w3.org/2000/svg" width="64" height="46" viewBox="0 0 64 46">
    <path fill="#29ABE2" fill-rule="evenodd" d="M33.678 25.424a2.95 2.95 0 0 0-1.879-.687 2.95 2.95 0 0 0-1.879.687L3.43 2.547c.01-.02.022-.039.031-.06.026-.062.038-.125.057-.188h56.937L33.678 25.424zm5.114-3.095L61.3 2.892v39.004c-.158.046-.309.11-.45.196L38.792 22.33zm-13.223.66h.001l3.694 3.19a2.94 2.94 0 0 0-.435 1.528 2.97 2.97 0 1 0 5.94 0 2.94 2.94 0 0 0-.435-1.528l3.695-3.19L60.184 42.84c-.015.03-.034.056-.047.087-.025.062-.038.125-.057.188H3.107L25.57 22.99zM2.78 3.306L24.806 22.33 2.3 42.496V3.52c.17-.05.332-.117.48-.213zm59.71 38.647c-.064-.025-.127-.038-.19-.056V1.8a.481.481 0 0 0-.03-.148c-.002-.009.002-.018 0-.026-.002-.003-.005-.004-.006-.007a.496.496 0 0 0-.209-.239.484.484 0 0 0-.255-.08H3.52A1.789 1.789 0 0 0 2.49.137 1.8 1.8 0 0 0 1.11 3.461c.062.026.126.038.188.057v40.097c0 .027.011.05.015.074.006.035.008.07.021.103a.439.439 0 0 0 .06.1c.011.018.016.04.032.057l.01.007a.482.482 0 0 0 .14.101c.008.005.015.013.024.017a.505.505 0 0 0 .198.041h58.28c.148.506.507.945 1.032 1.163a1.8 1.8 0 0 0 1.377-3.325z"/>
</svg>
