<svg xmlns="http://www.w3.org/2000/svg" width="56" height="61" viewBox="0 0 56 61">
    <path fill="#3974DC" fill-rule="evenodd" d="M38.68 45.731l-6.73-2.78c.006-.062.018-.122.018-.186 0-.639-.335-1.197-.837-1.516l2.432-7.817c.13.017.256.04.388.04a2.965 2.965 0 0 0 2.92-2.47h16.54l-14.73 14.73zm-8.578-1.174c.022 0 .044.007.067.007a1.79 1.79 0 0 0 1.405-.687l6.34 2.62-12.217 12.216 4.405-14.156zM3.018 31.001H31.032a2.954 2.954 0 0 0 1.576 2.135l-2.437 7.83h-.002c-.564 0-1.063.266-1.392.674L3.018 31.001zm23.445-6.893l-8.352-6.498c.083-.206.131-.43.131-.665 0-.263-.06-.51-.162-.736L34.647 2.125l-8.184 21.983zm-11.012-5.664a1.784 1.784 0 0 0 2.044-.046l8.603 6.692-1.828 4.911H1.858l13.593-11.557zm15.87 10.708a2.897 2.897 0 0 0-.289.85h-5.695l1.588-4.268 4.395 3.418zm23.758 1.157a.5.5 0 0 0-.46-.308H36.87a2.963 2.963 0 0 0-2.919-2.47c-.79 0-1.504.313-2.037.817l-4.623-3.596L36.253.675A.5.5 0 0 0 35.46.12L17.434 15.445a1.8 1.8 0 0 0-2.79 1.5c0 .263.06.511.161.735L.173 30.12c-.003.002-.003.007-.006.008a.498.498 0 0 0-.14.225c-.004.012-.01.021-.013.032 0 .006-.006.011-.007.018a.486.486 0 0 0 .02.243c.003.01-.002.02.001.027.003.008.01.011.013.02a.504.504 0 0 0 .198.226c.023.015.043.033.068.043l28.084 11.601c-.007.067-.02.133-.02.202 0 .614.31 1.156.781 1.481L24.14 60.352a.5.5 0 0 0 .831.502l14.18-14.18 15.82-15.82a.499.499 0 0 0 .108-.545z"/>
</svg>
