<svg xmlns="http://www.w3.org/2000/svg" width="47" height="67" viewBox="0 0 47 67">
    <path fill="#29ABE2" fill-rule="evenodd" d="M22.742 1.584V13.78a6.574 6.574 0 0 0-6.026 6.55c0 1.236.347 2.388.94 3.377L1.1 35.623V16.189L22.742 1.584zm1.1 60.797V26.877a6.56 6.56 0 0 0 4.443-2.276l16.95 12.198-21.16 25.657c-.074-.032-.155-.053-.234-.075zm-1.1-35.504V62.38c-.08.022-.16.043-.235.075L1.348 36.799l16.95-12.198a6.56 6.56 0 0 0 4.444 2.276zm22.74 8.746L28.926 23.707c.594-.989.94-2.14.94-3.378a6.574 6.574 0 0 0-6.025-6.549V1.584L45.482 16.19v19.434zm.858-20.18L23.6.096a.543.543 0 0 0-.617 0L.243 15.443a.548.548 0 0 0-.243.455v20.799c0 .127.045.25.126.35L21.66 63.155a1.978 1.978 0 1 0 3.266 0l21.531-26.11a.55.55 0 0 0 .126-.35V15.899a.547.547 0 0 0-.242-.455z"/>
</svg>
