<svg xmlns="http://www.w3.org/2000/svg" width="23" height="18" viewBox="0 0 23 18">
    <path fill="#29ABE2" fill-rule="evenodd" d="M16.16 7.37l-4.305 6.212a2.053 2.053 0 0 0-.327-.094 1.97 1.97 0 0 0-1.048.096L6.175 7.37h9.984zM21.103.024a1.499 1.499 0 0 0-1.486 2.35l-2.767 3.994H5.481L2.714 2.373A1.498 1.498 0 0 0 1.771.025a1.499 1.499 0 1 0-.543 2.95c.23.041.453.024.663-.033l7.767 11.212a1.97 1.97 0 0 0-.458.938 2 2 0 1 0 3.933.724 1.99 1.99 0 0 0-.458-1.66l4.763-6.878a.48.48 0 0 0 .206-.297l2.8-4.04c.04.01.076.026.117.033a1.499 1.499 0 1 0 .543-2.949z"/>
</svg>
