<svg xmlns="http://www.w3.org/2000/svg" width="24" height="25" viewBox="0 0 24 25">
    <path fill="#29ABE2" fill-rule="evenodd" d="M23 23.214l-7.174-7.826c.2-.23.35-.505.43-.816H23v8.642zm-10.488-9.961c-.046.1-.08.208-.11.319H2.908a1.491 1.491 0 0 0-.907-.91V1.786l10.512 11.468zm10.988.319h-7.24a1.998 1.998 0 0 0-1.57-1.467 1.995 1.995 0 0 0-1.543.36L1.867.162A.499.499 0 0 0 1 .5v12.165c-.487.174-.874.59-.975 1.135a1.496 1.496 0 1 0 2.884.772h9.49c.19.729.78 1.32 1.569 1.467.354.065.7.024 1.018-.087l8.146 8.886A.498.498 0 0 0 24 24.5V14.072a.5.5 0 0 0-.5-.5z"/>
</svg>
