<svg xmlns="http://www.w3.org/2000/svg" width="61" height="58" viewBox="0 0 61 58">
    <path fill="#FF0096" fill-rule="evenodd" d="M42.965 11.385a1.795 1.795 0 1 1-3.519.5H30.69l-7.551 6.684v5.853l5.043 2.745a2.953 2.953 0 0 1 2.32-1.134c1.64 0 2.97 1.328 2.97 2.967 0 .336-.069.653-.173.954l5.303 2.887c.16.088.26.257.26.44v6.374a.499.499 0 0 1-.168.374L31 46.839v5.136a.5.5 0 0 1-1 0v-4.861h-8.447a1.791 1.791 0 0 1-1.72 1.296 1.798 1.798 0 0 1-1.798-1.796c0-.993.806-1.797 1.799-1.797.819 0 1.502.55 1.719 1.298h8.758l7.55-6.685v-5.852l-5.042-2.746a2.95 2.95 0 0 1-2.319 1.134A2.969 2.969 0 0 1 27.53 29c0-.336.068-.655.17-.955L22.4 25.158a.5.5 0 0 1-.261-.439v-6.374c0-.144.062-.28.169-.374L30 11.161V6.024a.5.5 0 1 1 1 0v4.862h8.445a1.794 1.794 0 0 1 3.52.499zm11.38 34.92L39.608 57.002H21.393L6.655 46.306 1.027 29l5.628-17.306L21.393 1h18.215l14.737 10.695L59.975 29l-5.63 17.306zm.901-35.073a.492.492 0 0 0-.182-.25l-15-10.887A.499.499 0 0 0 39.77 0H21.23a.503.503 0 0 0-.294.095l-15 10.887a.49.49 0 0 0-.181.25L.025 28.845a.494.494 0 0 0 0 .308l5.73 17.615c.032.1.096.188.18.25l15 10.886a.497.497 0 0 0 .295.096h18.54a.493.493 0 0 0 .294-.096l15-10.886a.5.5 0 0 0 .182-.25l5.73-17.615a.494.494 0 0 0 0-.308l-5.73-17.613z"/>
</svg>
