<svg xmlns="http://www.w3.org/2000/svg" width="62" height="56" viewBox="0 0 62 56">
    <path fill="#60E3EA" fill-rule="evenodd" d="M9.297 31.892c.132.009.263.006.391-.013l9.938 21.823H1.214l8.083-21.81zm23.544 7.723a2.917 2.917 0 0 0-1.754-.59c-.11 0-.212.02-.32.031L22.414 6.357l13.17 30.207-2.742 3.051zm8.498-6.802l17.376 20.402a1.787 1.787 0 0 0-.217.487h-17.16v-20.89zm-17.78 18.62l6.14-6.83c.416.223.883.361 1.388.361a2.963 2.963 0 0 0 2.956-2.97c0-.616-.186-1.187-.506-1.662l6.806-7.572v20.942H21.521l2.038-2.268zM10.492 28.667l9.822-26.498 9.495 37.158a2.963 2.963 0 0 0-1.679 2.668c0 .771.3 1.466.78 1.995l-8.37 9.313-9.946-21.84a1.78 1.78 0 0 0 .488-.668 1.801 1.801 0 0 0-.59-2.128zm49.22 23.816a1.743 1.743 0 0 0-.24.084l-14.41-16.919 14.65 12.273v4.562zm.995 0v-4.796a.5.5 0 0 0-.178-.384L41.16 31.076c-.013-.011-.03-.01-.041-.018a.464.464 0 0 0-.174-.076c-.021-.005-.04-.012-.062-.014-.011-.001-.022-.008-.035-.008-.158-.027-.28.058-.376.165l-4.158 4.625L20.857.3a.482.482 0 0 0-.134-.177c-.01-.009-.022-.013-.033-.02a.48.48 0 0 0-.235-.092c-.01-.002-.017-.01-.027-.01-.005-.002-.008.002-.013.002a.493.493 0 0 0-.213.038c-.016.007-.025.021-.041.03a.388.388 0 0 0-.064.045.493.493 0 0 0-.16.206l-.002.003L9.56 28.32a1.784 1.784 0 0 0-1.786 1.097 1.799 1.799 0 0 0 .59 2.128L.031 54.027a.507.507 0 0 0 .057.46.497.497 0 0 0 .41.215h58A1.786 1.786 0 0 0 60.21 56a1.795 1.795 0 0 0 .497-3.518z"/>
</svg>
