<svg xmlns="http://www.w3.org/2000/svg" width="56" height="67" viewBox="0 0 56 67">
    <path fill="#FFF" fill-rule="evenodd" d="M27.625 62.377v-15.73l10.716 3.426-10.716 12.304zm-2.511-16.531v16.53L5.169 39.475l19.945 6.372zm26.368-13.494c-2.496 0-4.518 2.036-4.518 4.545 0 .902.27 1.74.721 2.446L40.146 48l-12.521-4.002V8.889a4.526 4.526 0 0 0 3.262-4.346C30.887 2.03 28.865 0 26.369 0s-4.518 2.031-4.518 4.543a4.526 4.526 0 0 0 3.263 4.345v34.307L1.635 35.692a1.25 1.25 0 0 0-1.428.515 1.26 1.26 0 0 0 .105 1.521l25.113 28.84c.007.01.02.013.03.023.088.096.196.166.309.232.035.02.063.05.1.066.154.068.324.111.505.111s.352-.043.505-.111c.038-.015.065-.046.1-.066.113-.066.221-.136.31-.232.01-.01.022-.013.03-.023l14.153-16.253c.02-.02.035-.04.053-.06l8.056-9.25c.58.27 1.223.437 1.906.437 2.496 0 4.518-2.036 4.518-4.545s-2.022-4.545-4.518-4.545z"/>
</svg>
