<svg xmlns="http://www.w3.org/2000/svg" width="62" height="62" viewBox="0 0 62 62">
    <path fill="#1BE1F4" fill-rule="evenodd" d="M45.519 32.003l-3.436-8.12a1.78 1.78 0 0 0 .528-.696c.026-.062.038-.126.056-.189h17.112l-14.26 9.005zm6.314 17.474l-15.346-8.448c.147-.353.23-.74.23-1.148 0-.36-.074-.7-.19-1.02l8.533-5.39 6.773 16.006zM5.66 57.174L26.79 36.83l4.13 2.274c-.066.249-.115.506-.115.777 0 .443.103.86.279 1.238L5.659 57.174zm11.13-25.85l9.088 5.002L3.53 57.84l13.258-26.514zM3.73 22.999h16.108l-3.477 6.953L3.73 22.998zm17.22 0h18.294c.033.115.078.225.133.33l-12.75 12.275-9.393-5.17 3.717-7.435zM31.609 1.687l8.222 19.428c-.222.182-.41.414-.527.698-.025.062-.038.125-.057.188H21.45L31.608 1.687zm2.154 35.232a2.95 2.95 0 0 0-2.427 1.275l-3.792-2.088 12.524-12.059c.067.04.132.08.205.11.293.122.6.152.895.116l3.5 8.27-8.641 5.456a2.936 2.936 0 0 0-2.264-1.08zM61.98 22.362a.499.499 0 0 0-.477-.361H42.669a1.787 1.787 0 0 0-1.027-1.159 1.763 1.763 0 0 0-.895-.116L32.105.304A.5.5 0 0 0 31.662 0a.515.515 0 0 0-.46.276L20.337 22H1.79a.499.499 0 0 0-.24.936l14.365 7.907-13.8 27.598a1.79 1.79 0 0 0-1.98 1.077 1.796 1.796 0 0 0 .97 2.344 1.788 1.788 0 0 0 2.338-.971c.161-.39.168-.802.06-1.18l28.14-17.769c.537.553 1.286.9 2.118.9.866 0 1.638-.38 2.178-.976l16.672 9.177a.499.499 0 0 0 .697-.632l-7.396-17.479 15.854-10.012a.498.498 0 0 0 .213-.56z"/>
</svg>
