<svg xmlns="http://www.w3.org/2000/svg" width="53" height="55" viewBox="0 0 53 55">
    <path fill="#29ABE2" fill-rule="evenodd" d="M46.257 34.742L31.422 45.533V32.885a3.189 3.189 0 0 0 2.657-3.143c0-.868-.35-1.654-.912-2.23l7.423-10.228 5.667 17.458zm-30.207.392l12.02-3.91a3.176 3.176 0 0 0 2.277 1.66v12.65l-14.297-10.4zm5.334-18.483H39.72l-7.427 10.236a3.157 3.157 0 0 0-1.41-.341 3.196 3.196 0 0 0-3.194 3.196c0 .158.026.308.046.458l-12.02 3.91 5.668-17.46zM51.066 0a1.935 1.935 0 0 0-1.935 1.935c0 .45.157.854.412 1.182l-9.041 12.457H20.993a.54.54 0 0 0-.511.373l-6.03 18.575-10.918 3.552A1.931 1.931 0 0 0 0 39.16a1.934 1.934 0 1 0 3.868 0c0-.022-.007-.041-.007-.061l10.924-3.554 15.562 11.32v4.348A1.93 1.93 0 0 0 30.884 55a1.93 1.93 0 1 0 .538-3.787v-4.348l15.784-11.481a.538.538 0 0 0 .194-.602l-6.028-18.575L50.41 3.751c.205.073.424.12.655.12a1.935 1.935 0 0 0 0-3.871z"/>
</svg>
