<svg xmlns="http://www.w3.org/2000/svg" width="18" height="15" viewBox="0 0 18 15">
    <path fill="#FFF" fill-rule="nonzero" d="M18 1.731a7.418 7.418 0 0 1-2.121.583A3.713 3.713 0 0 0 17.503.269a7.396 7.396 0 0 1-2.347.896 3.694 3.694 0 0 0-6.292 3.369A10.486 10.486 0 0 1 1.253.674a3.679 3.679 0 0 0-.5 1.86c0 1.28.651 2.41 1.643 3.071a3.661 3.661 0 0 1-1.673-.461v.046a3.696 3.696 0 0 0 2.962 3.622 3.66 3.66 0 0 1-1.668.063 3.695 3.695 0 0 0 3.448 2.564 7.391 7.391 0 0 1-4.586 1.58c-.3 0-.59-.017-.879-.05a10.45 10.45 0 0 0 5.66 1.657c6.792 0 10.507-5.627 10.507-10.504 0-.163-.002-.322-.01-.481A7.387 7.387 0 0 0 18 1.73"/>
</svg>
